<svg xmlns="http://www.w3.org/2000/svg" width="640" height="360" viewBox="0 0 640 360" role="img" aria-label="Cute hands loop">
  <defs>
    <linearGradient id="bg" x1="0" y1="0" x2="1" y2="1">
      <stop offset="0" stop-color="#FFE2EC"/>
      <stop offset="1" stop-color="#FFF6EC"/>
    </linearGradient>
  </defs>
  <style>
    .hug { transform-origin: 320px 210px; animation: hug 1.4s ease-in-out infinite; }
    @keyframes hug { 0%,100%{transform:scale(.98)} 50%{transform:scale(1.05)} }
    .h { opacity:.0; animation: h 1.1s ease-in-out infinite; }
    @keyframes h { 0%{opacity:0;transform:translateY(10px)} 40%{opacity:1} 100%{opacity:0;transform:translateY(-16px)} }
    .d1{animation-delay:.2s} .d2{animation-delay:.4s} .d3{animation-delay:.6s}
  </style>
  <rect width="640" height="360" fill="url(#bg)"/>
  <g class="hug">
    <path d="M250 246c-28-20-48-56-36-86 10-24 34-26 48-12 10 10 14 26 14 44v54z" fill="#FF7FA3"/>
    <path d="M390 246c28-20 48-56 36-86-10-24-34-26-48-12-10 10-14 26-14 44v54z" fill="#FF7FA3"/>
    <path d="M320 264c-42 0-76-30-76-68s34-68 76-68 76 30 76 68-34 68-76 68z" fill="#E63946" opacity=".92"/>
  </g>
  <g fill="#FFFFFF">
    <path class="h" d="M320 112s-18-10.5-24-22c-6-13.3 2.4-22 12-17.7 4.2 1.8 7.2 6 12 11.2 4.8-5.2 7.8-9.4 12-11.2 9.6-4.3 18 4.4 12 17.7-6 11.5-24 22-24 22z" opacity=".85"/>
    <path class="h d1" d="M260 132s-12-7-16-14c-4-8.5 1.6-14 8-11.2 2.8 1.2 4.8 4 8 7.4 3.2-3.4 5.2-6.2 8-7.4 6.4-2.8 12 2.7 8 11.2-4 7-16 14-16 14z" opacity=".7"/>
    <path class="h d2" d="M380 132s-12-7-16-14c-4-8.5 1.6-14 8-11.2 2.8 1.2 4.8 4 8 7.4 3.2-3.4 5.2-6.2 8-7.4 6.4-2.8 12 2.7 8 11.2-4 7-16 14-16 14z" opacity=".7"/>
    <path class="h d3" d="M320 90s-10-6-13-12c-3-7.2 1.2-12 6.5-9.6 2.3 1 3.9 3.3 6.5 6 2.6-2.7 4.2-5 6.5-6 5.3-2.4 9.5 2.4 6.5 9.6-3 6-13 12-13 12z" opacity=".8"/>
  </g>
</svg>
